# xmcd CD database file
#
# Track frame offsets:
#	150
#	3207
#	5352
#	19360
#	32905
#	42432
#	55315
#	70677
#	81942
#	96262
#	109040
#	120697
#	140147
#	151675
#	170615
#	183462
#	197085
#	216047
#
# Disc length: 2935 seconds
#
# Revision: 1
# Processed by: cddbd v1.5PL3 Copyright (c) Steve Scherf et al.
# Submitted via: CDex 1.51
#
DISCID=f40b7512
DTITLE=The Johnson Mountain Boys - Live At The Birchmere 1983 - Rounder
DYEAR=1994
DGENRE=Bluegrass
TTITLE0=Introduction by Red Shipley
TTITLE1=Opening Theme - Wake Up Susan
TTITLE2=We Can't Be Darlings Anymore
TTITLE3=Highway Of Sorrow
TTITLE4=Big Rufus
TTITLE5=Wasted Words
TTITLE6=I'm Dying A Sinners Death
TTITLE7=Sugarloaf Mountain Special
TTITLE8=Making Up Stories
TTITLE9=Tragic Love
TTITLE10=Let's Part The Best Of Friends
TTITLE11=Wild And Wicked World
TTITLE12=Blue Yodel No. 3
TTITLE13=She's Young (And I'm Growing Old)
TTITLE14=Georgia Stomp
TTITLE15=I'll Never See You Anymore
TTITLE16=Get Down on Your Knees and Pray
TTITLE17=Closing Theme - Cumberland Gap
EXTD=YEAR: 1994
EXTT0=
EXTT1=
EXTT2=
EXTT3=
EXTT4=
EXTT5=
EXTT6=
EXTT7=
EXTT8=
EXTT9=
EXTT10=
EXTT11=
EXTT12=
EXTT13=
EXTT14=
EXTT15=
EXTT16=
EXTT17=
PLAYORDER=
